<svg xmlns="http://www.w3.org/2000/svg" width="1441.708" height="772" viewBox="0 0 1441.708 772">
  <defs>
    <style>
      .cls-1, .cls-4 {
        fill: #e9e0e0;
      }

      .cls-1 {
        mix-blend-mode: multiply;
        isolation: isolate;
      }

      .cls-10, .cls-2 {
        fill: none;
      }

      .cls-2, .cls-3 {
        stroke: #372e0f;
      }

      .cls-2 {
        stroke-width: 3px;
      }

      .cls-3 {
        fill: #372e0f;
        stroke-width: 4px;
        font-size: 70px;
        opacity: 0.72;
      }

      .cls-3, .cls-5 {
        font-family: PerpetuaTitlingMT-Light, Perpetua Titling MT;
        font-weight: 300;
        letter-spacing: 0.15em;
      }

      .cls-4 {
        stroke: #707070;
      }

      .cls-5 {
        font-size: 8px;
      }

      .cls-6 {
        fill: #f4973a;
      }

      .cls-7 {
        fill: #af5d14;
      }

      .cls-8 {
        fill: #fff;
      }

      .cls-9 {
        stroke: none;
      }
    </style>
  </defs>
  <g id="tło" transform="translate(38 4)">
    <path id="Path_11" data-name="Path 11" class="cls-1" d="M0,0H1441.708V42.26H0Z" transform="translate(-38 102.856)"/>
    <line id="Line_1" data-name="Line 1" class="cls-2" y2="36" transform="translate(293.5 105.5)"/>
    <line id="Line_1-2" data-name="Line 1" class="cls-2" y2="36" transform="translate(1081.5 106.5)"/>
    <text id="KoronaProject" class="cls-3" transform="translate(310 67)"><tspan x="0" y="0">KoronaProject</tspan></text>
    <g id="Rectangle_8" data-name="Rectangle 8" class="cls-4" transform="translate(-31 721)">
      <rect class="cls-9" width="1428" height="47"/>
      <rect class="cls-10" x="0.5" y="0.5" width="1427" height="46"/>
    </g>
    <text id="http:_www.freepik.com_Designed_by_rawpixel.com_Freepik" data-name="http://www.freepik.com&quot;&gt;Designed by rawpixel.com / Freepik" class="cls-5" transform="translate(30 748)"><tspan x="0" y="0">http://www.freepik.com&quot;&gt;Designed by rawpixel.com / Freepik</tspan></text>
    <g id="Component_10_9" data-name="Component 10 – 9" transform="translate(603.913 57.048)">
      <ellipse id="Ellipse_17" data-name="Ellipse 17" class="cls-6" cx="77.5" cy="74.5" rx="77.5" ry="74.5" transform="matrix(0.999, -0.035, 0.035, 0.999, 0, 5.409)"/>
      <path id="Intersection_1" data-name="Intersection 1" class="cls-7" d="M48.57,111,3.6,63.143l1.719-1.591c-.6.208-1.211.423-1.8.64h0V21.819A6.14,6.14,0,0,1,0,16.308a6.326,6.326,0,0,1,6.443-6.186,6.326,6.326,0,0,1,6.443,6.186,6.12,6.12,0,0,1-2.848,5.134,8.285,8.285,0,0,0,7.535,4.425c4.4,0,8-3.067,8.192-6.983a6.5,6.5,0,0,1-3.352-2.191,5.973,5.973,0,0,1-1.326-3.76,6.448,6.448,0,0,1,12.886,0,6.121,6.121,0,0,1-2.848,5.135,8.285,8.285,0,0,0,7.535,4.425c4.046,0,7.45-2.582,8.1-6.14a8.726,8.726,0,0,1-4.135-3.041A8.147,8.147,0,0,1,41,8.435a8.794,8.794,0,0,1,17.573,0,8.147,8.147,0,0,1-1.618,4.878,8.73,8.73,0,0,1-4.135,3.041,6.566,6.566,0,0,0,.268,1.011.219.219,0,0,0-.085.056L5.315,61.551a118.152,118.152,0,0,1,19.753-4.78A161.027,161.027,0,0,1,47.55,54.849c.952-.016,1.919-.024,2.875-.024,16.728,0,32.521,2.475,44.468,6.97V22.944a6.082,6.082,0,0,0-.186-11.109h.079a3.673,3.673,0,0,1,2.45,1.429L125.85,43.708c-2.56,37.664-34.16,67.429-72.765,67.429Q50.81,111.138,48.57,111ZM79.029,45.945c-.173-.044-4.238-1.081-9.26-2.863-4.736-1.681-11.358-4.4-16-7.79-2.024-1.482-2.391-4.349-2.684-6.654a9.482,9.482,0,0,0-.632-2.9c-.157-.339.712-2.645,1.48-4.681a28.022,28.022,0,0,0,1.21-3.543,8.184,8.184,0,0,0,7.776,4.982,8.362,8.362,0,0,0,7.273-3.935,6.2,6.2,0,0,1-3.759-5.625,6.449,6.449,0,0,1,12.887,0,5.973,5.973,0,0,1-1.326,3.76,6.5,6.5,0,0,1-3.351,2.191c.194,3.915,3.792,6.983,8.193,6.983a8.481,8.481,0,0,0,7.079-3.623,6.072,6.072,0,0,1-2.394-4.812,5.966,5.966,0,0,1,1.366-3.809c-.038-.037-.08-.077-.135-.128h.242a6.644,6.644,0,0,1,7.714-1.661,2.054,2.054,0,0,0-1.588,1.06c-2,2.963-2.877,10.191-3.653,16.568-.575,4.732-1.072,8.818-1.913,10.216-3.405,5.644-5.754,6.829-7.125,6.829A1.865,1.865,0,0,1,79.029,45.945Z" transform="matrix(0.999, -0.035, 0.035, 0.999, 30.356, 41.237)"/>
      <g id="Group_26" data-name="Group 26" transform="matrix(0.999, -0.035, 0.035, 0.999, 28.62, 40.699)">
        <path id="Union_1" data-name="Union 1" class="cls-8" d="M3.555,69.572V24.408A6.977,6.977,0,0,1,0,18.243a6.728,6.728,0,0,1,6.519-6.92,6.728,6.728,0,0,1,6.519,6.92,7.035,7.035,0,0,1-2.882,5.744,8.321,8.321,0,0,0,15.912-2.861,6.874,6.874,0,0,1-4.733-6.657,6.728,6.728,0,0,1,6.519-6.92,6.728,6.728,0,0,1,6.519,6.92,7.035,7.035,0,0,1-2.882,5.744A8.33,8.33,0,0,0,47.305,18.3a9.431,9.431,0,0,1-5.82-8.86A9.175,9.175,0,0,1,50.374,0a9.175,9.175,0,0,1,8.89,9.436,9.43,9.43,0,0,1-5.82,8.859,8.332,8.332,0,0,0,15.549,2.466,6.956,6.956,0,0,1-3.8-6.292,6.53,6.53,0,1,1,13.038,0A6.875,6.875,0,0,1,73.5,21.126a8.323,8.323,0,0,0,15.451,3.758A7.073,7.073,0,0,1,86.525,19.5a7.163,7.163,0,0,1,1.382-4.261q-.067-.072-.136-.143h.244a6.366,6.366,0,0,1,5.029-2.516,6.728,6.728,0,0,1,6.519,6.92,6.977,6.977,0,0,1-3.555,6.165V69.129c-12.086-5.028-28.064-7.8-44.99-7.8-.962,0-1.941.009-2.909.027-16.471.3-32.292,3.223-44.552,8.214h0Z"/>
      </g>
    </g>
  </g>
</svg>
